<svg
	width="240"
	height="185"
	viewBox="0 0 280 214.4385272066382"
	class="css-1j8o68f"
>
	<g
		id="SvgjsG1364"
		featurekey="mugSzh-0"
		transform="matrix(3.4,0,0,3.38,-30,-63)"
		fill="#3490de"
	>
		<title xmlns="http://www.w3.org/2000/svg">63 all</title>
		<path
			xmlns="http://www.w3.org/2000/svg"
			d="M75,39.3h-18a3,3,0,0,0,0,6H75a3,3,0,0,0,0-6Z"
		></path>
		<path
			xmlns="http://www.w3.org/2000/svg"
			d="M75,54.7h-18a3,3,0,0,0,0,6H75a3,3,0,0,0,0-6Z"
		></path>
		<path
			xmlns="http://www.w3.org/2000/svg"
			d="M80.19,17.65H19.81a11,11,0,0,0-11,11V71.35a11,11,0,0,0,11,11H80.19a11,11,0,0,0,11-11V28.65A11,11,0,0,0,80.19,17.65Zm5,53.71a5,5,0,0,1-5,5H19.81a5,5,0,0,1-5-5V28.65a5,5,0,0,1,5-5H80.19a5,5,0,0,1,5,5Z"
		></path>
		<path
			xmlns="http://www.w3.org/2000/svg"
			d="M34.67,48.73a8.47,8.47,0,1,0-1.35,0,13.74,13.74,0,0,0-13.06,13.7v2.75a3,3,0,0,0,3,3H44.73a3,3,0,0,0,3-3V62.43A13.74,13.74,0,0,0,34.67,48.73Zm-3.15-8.44A2.47,2.47,0,1,1,34,42.76,2.47,2.47,0,0,1,31.53,40.29ZM26.27,62.18a7.73,7.73,0,0,1,15.46,0Z"
		></path>
	</g>

</svg>